<?xml version="1.0" standalone="no"?>
<!DOCTYPE svg PUBLIC "-//W3C//DTD SVG 20010904//EN"
 "http://www.w3.org/TR/2001/REC-SVG-20010904/DTD/svg10.dtd">
<svg version="1.0" xmlns="http://www.w3.org/2000/svg"
 width="16.000000pt" height="16.000000pt" viewBox="0 0 16.000000 16.000000"
 preserveAspectRatio="xMidYMid meet">
<metadata>
Created by potrace 1.11, written by Peter Selinger 2001-2013
</metadata>
<g transform="translate(0.000000,16.000000) scale(0.006154,-0.006154)"
fill="#000000" stroke="none">
<path d="M23 1918 c5 -18 51 -262 74 -388 2 -14 18 -95 34 -180 17 -85 39
-200 49 -255 11 -55 21 -109 23 -120 2 -11 17 -86 32 -168 l28 -147 107 0 106
0 51 157 c29 87 89 275 135 418 l84 260 83 -255 c46 -140 101 -311 123 -380
22 -69 45 -141 53 -160 l13 -35 106 -3 c58 -1 106 -1 106 1 0 2 11 59 24 128
35 178 87 450 92 479 5 25 62 326 89 470 8 41 16 86 19 100 2 14 7 42 11 63
l7 38 -113 -3 -113 -3 -7 -40 c-4 -22 -10 -56 -13 -75 -10 -62 -16 -94 -25
-140 -19 -96 -31 -156 -36 -190 -3 -19 -14 -80 -25 -135 -21 -106 -27 -139
-36 -195 -3 -19 -7 -36 -8 -37 -1 -1 -23 66 -50 150 -26 84 -68 215 -93 292
-24 77 -60 189 -78 249 -19 60 -38 113 -43 118 -5 5 -46 8 -92 6 l-83 -3 -44
-140 c-25 -77 -72 -225 -105 -330 -33 -104 -70 -220 -81 -257 -12 -38 -25 -68
-28 -68 -4 0 -16 53 -28 118 -12 64 -33 176 -46 247 -13 72 -34 184 -46 250
-12 66 -24 134 -28 150 l-7 30 -113 3 -113 3 5 -23z"/>
<path d="M1778 1933 c-2 -5 -4 -291 -3 -638 l1 -630 392 -3 392 -2 0 110 0
110 -280 0 -280 0 0 153 0 154 208 1 c114 0 219 1 235 1 l27 1 0 108 0 108
-235 0 -235 -1 0 158 0 157 248 1 c136 1 262 0 280 -1 l32 -2 0 111 0 111
-389 0 c-215 0 -391 -3 -393 -7z"/>
</g>
</svg>
